<mxfile host="app.diagrams.net" modified="2023-10-09T23:31:07.180Z" agent="Mozilla/5.0 (Windows NT 10.0; Win64; x64) AppleWebKit/537.36 (KHTML, like Gecko) Chrome/117.0.0.0 Safari/537.36 Edg/117.0.2045.47" etag="AOPq54LwG1Bt0XsVS-1Y" version="22.0.4" type="github">
  <diagram name="第 1 页" id="A_nPMplHjwOyvWo5FoA6">
    <mxGraphModel dx="1492" dy="934" grid="1" gridSize="10" guides="1" tooltips="1" connect="1" arrows="1" fold="1" page="1" pageScale="1" pageWidth="827" pageHeight="1169" math="0" shadow="0">
      <root>
        <mxCell id="0" />
        <mxCell id="1" parent="0" />
        <mxCell id="czMOGKmzcZkeMMu52tw4-1" value="user" style="rounded=0;whiteSpace=wrap;html=1;direction=west;" vertex="1" parent="1">
          <mxGeometry x="140" y="400" width="120" height="60" as="geometry" />
        </mxCell>
        <mxCell id="czMOGKmzcZkeMMu52tw4-2" value="article" style="rounded=0;whiteSpace=wrap;html=1;direction=west;" vertex="1" parent="1">
          <mxGeometry x="520" y="170" width="120" height="60" as="geometry" />
        </mxCell>
        <mxCell id="czMOGKmzcZkeMMu52tw4-3" value="comment" style="rounded=0;whiteSpace=wrap;html=1;" vertex="1" parent="1">
          <mxGeometry x="520" y="400" width="120" height="60" as="geometry" />
        </mxCell>
        <mxCell id="czMOGKmzcZkeMMu52tw4-4" value="category" style="rounded=0;whiteSpace=wrap;html=1;direction=west;" vertex="1" parent="1">
          <mxGeometry x="100" y="170" width="120" height="60" as="geometry" />
        </mxCell>
        <mxCell id="czMOGKmzcZkeMMu52tw4-5" value="account" style="ellipse;whiteSpace=wrap;html=1;" vertex="1" parent="1">
          <mxGeometry x="20" y="545" width="80" height="80" as="geometry" />
        </mxCell>
        <mxCell id="czMOGKmzcZkeMMu52tw4-6" value="id" style="ellipse;whiteSpace=wrap;html=1;" vertex="1" parent="1">
          <mxGeometry x="10" y="390" width="80" height="80" as="geometry" />
        </mxCell>
        <mxCell id="czMOGKmzcZkeMMu52tw4-8" value="password" style="ellipse;whiteSpace=wrap;html=1;" vertex="1" parent="1">
          <mxGeometry x="110" y="545" width="80" height="80" as="geometry" />
        </mxCell>
        <mxCell id="czMOGKmzcZkeMMu52tw4-9" value="token" style="ellipse;whiteSpace=wrap;html=1;" vertex="1" parent="1">
          <mxGeometry x="200" y="545" width="80" height="80" as="geometry" />
        </mxCell>
        <mxCell id="czMOGKmzcZkeMMu52tw4-12" value="" style="endArrow=none;html=1;rounded=0;exitX=1;exitY=0.5;exitDx=0;exitDy=0;" edge="1" parent="1" source="czMOGKmzcZkeMMu52tw4-6">
          <mxGeometry width="50" height="50" relative="1" as="geometry">
            <mxPoint x="90" y="470" as="sourcePoint" />
            <mxPoint x="140" y="420" as="targetPoint" />
          </mxGeometry>
        </mxCell>
        <mxCell id="czMOGKmzcZkeMMu52tw4-13" value="" style="endArrow=none;html=1;rounded=0;exitX=0.5;exitY=0;exitDx=0;exitDy=0;" edge="1" parent="1" source="czMOGKmzcZkeMMu52tw4-5">
          <mxGeometry width="50" height="50" relative="1" as="geometry">
            <mxPoint x="100" y="510" as="sourcePoint" />
            <mxPoint x="150" y="460" as="targetPoint" />
          </mxGeometry>
        </mxCell>
        <mxCell id="czMOGKmzcZkeMMu52tw4-14" value="" style="endArrow=none;html=1;rounded=0;exitX=0.5;exitY=0;exitDx=0;exitDy=0;" edge="1" parent="1" source="czMOGKmzcZkeMMu52tw4-8">
          <mxGeometry width="50" height="50" relative="1" as="geometry">
            <mxPoint x="105" y="545" as="sourcePoint" />
            <mxPoint x="195" y="460" as="targetPoint" />
          </mxGeometry>
        </mxCell>
        <mxCell id="czMOGKmzcZkeMMu52tw4-15" value="" style="endArrow=none;html=1;rounded=0;exitX=0.5;exitY=0;exitDx=0;exitDy=0;" edge="1" parent="1" source="czMOGKmzcZkeMMu52tw4-9">
          <mxGeometry width="50" height="50" relative="1" as="geometry">
            <mxPoint x="190" y="545" as="sourcePoint" />
            <mxPoint x="235" y="460" as="targetPoint" />
          </mxGeometry>
        </mxCell>
        <mxCell id="czMOGKmzcZkeMMu52tw4-16" value="comment" style="rhombus;whiteSpace=wrap;html=1;" vertex="1" parent="1">
          <mxGeometry x="350" y="400" width="80" height="80" as="geometry" />
        </mxCell>
        <mxCell id="czMOGKmzcZkeMMu52tw4-17" value="write" style="rhombus;whiteSpace=wrap;html=1;" vertex="1" parent="1">
          <mxGeometry x="350" y="240" width="80" height="80" as="geometry" />
        </mxCell>
        <mxCell id="czMOGKmzcZkeMMu52tw4-18" value="" style="endArrow=none;html=1;rounded=0;exitX=0;exitY=1;exitDx=0;exitDy=0;" edge="1" parent="1" source="czMOGKmzcZkeMMu52tw4-1">
          <mxGeometry width="50" height="50" relative="1" as="geometry">
            <mxPoint x="300" y="330" as="sourcePoint" />
            <mxPoint x="350" y="280" as="targetPoint" />
          </mxGeometry>
        </mxCell>
        <mxCell id="czMOGKmzcZkeMMu52tw4-24" value="(0,n)" style="edgeLabel;html=1;align=center;verticalAlign=middle;resizable=0;points=[];" vertex="1" connectable="0" parent="czMOGKmzcZkeMMu52tw4-18">
          <mxGeometry x="-0.0091" y="-2" relative="1" as="geometry">
            <mxPoint as="offset" />
          </mxGeometry>
        </mxCell>
        <mxCell id="czMOGKmzcZkeMMu52tw4-20" value="" style="endArrow=none;html=1;rounded=0;exitX=0.694;exitY=0.164;exitDx=0;exitDy=0;exitPerimeter=0;" edge="1" parent="1" source="czMOGKmzcZkeMMu52tw4-17">
          <mxGeometry width="50" height="50" relative="1" as="geometry">
            <mxPoint x="470" y="240" as="sourcePoint" />
            <mxPoint x="520" y="190" as="targetPoint" />
          </mxGeometry>
        </mxCell>
        <mxCell id="czMOGKmzcZkeMMu52tw4-23" value="(1:1)" style="edgeLabel;html=1;align=center;verticalAlign=middle;resizable=0;points=[];" vertex="1" connectable="0" parent="czMOGKmzcZkeMMu52tw4-20">
          <mxGeometry x="0.1914" y="-1" relative="1" as="geometry">
            <mxPoint as="offset" />
          </mxGeometry>
        </mxCell>
        <mxCell id="czMOGKmzcZkeMMu52tw4-21" value="" style="endArrow=none;html=1;rounded=0;exitX=0;exitY=0.5;exitDx=0;exitDy=0;" edge="1" parent="1" source="czMOGKmzcZkeMMu52tw4-1">
          <mxGeometry width="50" height="50" relative="1" as="geometry">
            <mxPoint x="300" y="490" as="sourcePoint" />
            <mxPoint x="350" y="440" as="targetPoint" />
          </mxGeometry>
        </mxCell>
        <mxCell id="czMOGKmzcZkeMMu52tw4-25" value="(0:n)" style="edgeLabel;html=1;align=center;verticalAlign=middle;resizable=0;points=[];" vertex="1" connectable="0" parent="czMOGKmzcZkeMMu52tw4-21">
          <mxGeometry x="-0.0288" relative="1" as="geometry">
            <mxPoint as="offset" />
          </mxGeometry>
        </mxCell>
        <mxCell id="czMOGKmzcZkeMMu52tw4-22" value="" style="endArrow=none;html=1;rounded=0;exitX=1;exitY=0.5;exitDx=0;exitDy=0;" edge="1" parent="1" source="czMOGKmzcZkeMMu52tw4-16">
          <mxGeometry width="50" height="50" relative="1" as="geometry">
            <mxPoint x="470" y="480" as="sourcePoint" />
            <mxPoint x="520" y="430" as="targetPoint" />
          </mxGeometry>
        </mxCell>
        <mxCell id="czMOGKmzcZkeMMu52tw4-26" value="(1:1)" style="edgeLabel;html=1;align=center;verticalAlign=middle;resizable=0;points=[];" vertex="1" connectable="0" parent="czMOGKmzcZkeMMu52tw4-22">
          <mxGeometry x="-0.0199" relative="1" as="geometry">
            <mxPoint as="offset" />
          </mxGeometry>
        </mxCell>
        <mxCell id="czMOGKmzcZkeMMu52tw4-27" value="belong" style="rhombus;whiteSpace=wrap;html=1;" vertex="1" parent="1">
          <mxGeometry x="670" y="290" width="80" height="80" as="geometry" />
        </mxCell>
        <mxCell id="czMOGKmzcZkeMMu52tw4-28" value="" style="endArrow=none;html=1;rounded=0;exitX=1;exitY=0;exitDx=0;exitDy=0;" edge="1" parent="1" source="czMOGKmzcZkeMMu52tw4-3">
          <mxGeometry width="50" height="50" relative="1" as="geometry">
            <mxPoint x="620" y="380" as="sourcePoint" />
            <mxPoint x="670" y="330" as="targetPoint" />
            <Array as="points" />
          </mxGeometry>
        </mxCell>
        <mxCell id="czMOGKmzcZkeMMu52tw4-31" value="(1:1)" style="edgeLabel;html=1;align=center;verticalAlign=middle;resizable=0;points=[];" vertex="1" connectable="0" parent="czMOGKmzcZkeMMu52tw4-28">
          <mxGeometry x="-0.061" y="-1" relative="1" as="geometry">
            <mxPoint y="1" as="offset" />
          </mxGeometry>
        </mxCell>
        <mxCell id="czMOGKmzcZkeMMu52tw4-29" value="" style="endArrow=none;html=1;rounded=0;exitX=0.5;exitY=0;exitDx=0;exitDy=0;" edge="1" parent="1" source="czMOGKmzcZkeMMu52tw4-27">
          <mxGeometry width="50" height="50" relative="1" as="geometry">
            <mxPoint x="590" y="280" as="sourcePoint" />
            <mxPoint x="640" y="230" as="targetPoint" />
          </mxGeometry>
        </mxCell>
        <mxCell id="czMOGKmzcZkeMMu52tw4-30" value="(0:n)" style="edgeLabel;html=1;align=center;verticalAlign=middle;resizable=0;points=[];" vertex="1" connectable="0" parent="czMOGKmzcZkeMMu52tw4-29">
          <mxGeometry x="-0.0166" y="3" relative="1" as="geometry">
            <mxPoint as="offset" />
          </mxGeometry>
        </mxCell>
        <mxCell id="czMOGKmzcZkeMMu52tw4-32" value="" style="endArrow=none;html=1;rounded=0;" edge="1" parent="1" source="czMOGKmzcZkeMMu52tw4-35">
          <mxGeometry width="50" height="50" relative="1" as="geometry">
            <mxPoint x="700" y="300" as="sourcePoint" />
            <mxPoint x="790" y="400" as="targetPoint" />
            <Array as="points">
              <mxPoint x="740" y="270" />
              <mxPoint x="770" y="290" />
            </Array>
          </mxGeometry>
        </mxCell>
        <mxCell id="czMOGKmzcZkeMMu52tw4-33" value="" style="endArrow=none;html=1;rounded=0;exitX=1;exitY=0.5;exitDx=0;exitDy=0;" edge="1" parent="1" source="czMOGKmzcZkeMMu52tw4-3">
          <mxGeometry width="50" height="50" relative="1" as="geometry">
            <mxPoint x="740" y="450" as="sourcePoint" />
            <mxPoint x="790" y="400" as="targetPoint" />
          </mxGeometry>
        </mxCell>
        <mxCell id="czMOGKmzcZkeMMu52tw4-34" value="(0:n)" style="edgeLabel;html=1;align=center;verticalAlign=middle;resizable=0;points=[];" vertex="1" connectable="0" parent="czMOGKmzcZkeMMu52tw4-33">
          <mxGeometry x="-0.2904" y="-3" relative="1" as="geometry">
            <mxPoint as="offset" />
          </mxGeometry>
        </mxCell>
        <mxCell id="czMOGKmzcZkeMMu52tw4-36" value="" style="endArrow=none;html=1;rounded=0;" edge="1" parent="1" target="czMOGKmzcZkeMMu52tw4-35">
          <mxGeometry width="50" height="50" relative="1" as="geometry">
            <mxPoint x="700" y="300" as="sourcePoint" />
            <mxPoint x="790" y="400" as="targetPoint" />
            <Array as="points" />
          </mxGeometry>
        </mxCell>
        <mxCell id="czMOGKmzcZkeMMu52tw4-35" value="or" style="text;html=1;strokeColor=none;fillColor=none;align=center;verticalAlign=middle;whiteSpace=wrap;rounded=0;" vertex="1" parent="1">
          <mxGeometry x="660" y="290" width="50" height="20" as="geometry" />
        </mxCell>
        <mxCell id="czMOGKmzcZkeMMu52tw4-37" value="id" style="ellipse;whiteSpace=wrap;html=1;" vertex="1" parent="1">
          <mxGeometry x="530" y="530" width="80" height="80" as="geometry" />
        </mxCell>
        <mxCell id="czMOGKmzcZkeMMu52tw4-39" value="content" style="ellipse;whiteSpace=wrap;html=1;" vertex="1" parent="1">
          <mxGeometry x="630" y="530" width="80" height="80" as="geometry" />
        </mxCell>
        <mxCell id="czMOGKmzcZkeMMu52tw4-40" value="timedate" style="ellipse;whiteSpace=wrap;html=1;" vertex="1" parent="1">
          <mxGeometry x="730" y="530" width="80" height="80" as="geometry" />
        </mxCell>
        <mxCell id="czMOGKmzcZkeMMu52tw4-41" value="" style="endArrow=none;html=1;rounded=0;exitX=0.5;exitY=0;exitDx=0;exitDy=0;" edge="1" parent="1" source="czMOGKmzcZkeMMu52tw4-37">
          <mxGeometry width="50" height="50" relative="1" as="geometry">
            <mxPoint x="520" y="510" as="sourcePoint" />
            <mxPoint x="570" y="460" as="targetPoint" />
          </mxGeometry>
        </mxCell>
        <mxCell id="czMOGKmzcZkeMMu52tw4-43" value="" style="endArrow=none;html=1;rounded=0;" edge="1" parent="1" source="czMOGKmzcZkeMMu52tw4-39">
          <mxGeometry width="50" height="50" relative="1" as="geometry">
            <mxPoint x="510" y="530" as="sourcePoint" />
            <mxPoint x="600" y="460" as="targetPoint" />
          </mxGeometry>
        </mxCell>
        <mxCell id="czMOGKmzcZkeMMu52tw4-44" value="" style="endArrow=none;html=1;rounded=0;exitX=0.333;exitY=-0.041;exitDx=0;exitDy=0;exitPerimeter=0;" edge="1" parent="1" source="czMOGKmzcZkeMMu52tw4-40">
          <mxGeometry width="50" height="50" relative="1" as="geometry">
            <mxPoint x="500" y="530" as="sourcePoint" />
            <mxPoint x="590" y="460" as="targetPoint" />
          </mxGeometry>
        </mxCell>
        <mxCell id="czMOGKmzcZkeMMu52tw4-45" value="like" style="rhombus;whiteSpace=wrap;html=1;" vertex="1" parent="1">
          <mxGeometry x="460" y="300" width="80" height="80" as="geometry" />
        </mxCell>
        <mxCell id="czMOGKmzcZkeMMu52tw4-46" value="" style="endArrow=none;html=1;rounded=0;exitX=0;exitY=0.75;exitDx=0;exitDy=0;" edge="1" parent="1" source="czMOGKmzcZkeMMu52tw4-1">
          <mxGeometry width="50" height="50" relative="1" as="geometry">
            <mxPoint x="410" y="390" as="sourcePoint" />
            <mxPoint x="460" y="340" as="targetPoint" />
          </mxGeometry>
        </mxCell>
        <mxCell id="czMOGKmzcZkeMMu52tw4-47" value="(0:n)" style="edgeLabel;html=1;align=center;verticalAlign=middle;resizable=0;points=[];" vertex="1" connectable="0" parent="czMOGKmzcZkeMMu52tw4-46">
          <mxGeometry x="0.2622" y="-3" relative="1" as="geometry">
            <mxPoint as="offset" />
          </mxGeometry>
        </mxCell>
        <mxCell id="czMOGKmzcZkeMMu52tw4-48" value="" style="endArrow=none;html=1;rounded=0;exitX=0.679;exitY=0.101;exitDx=0;exitDy=0;exitPerimeter=0;" edge="1" parent="1" source="czMOGKmzcZkeMMu52tw4-45">
          <mxGeometry width="50" height="50" relative="1" as="geometry">
            <mxPoint x="520" y="280" as="sourcePoint" />
            <mxPoint x="570" y="230" as="targetPoint" />
          </mxGeometry>
        </mxCell>
        <mxCell id="czMOGKmzcZkeMMu52tw4-49" value="(0:n)" style="edgeLabel;html=1;align=center;verticalAlign=middle;resizable=0;points=[];" vertex="1" connectable="0" parent="czMOGKmzcZkeMMu52tw4-48">
          <mxGeometry x="-0.053" y="2" relative="1" as="geometry">
            <mxPoint as="offset" />
          </mxGeometry>
        </mxCell>
        <mxCell id="czMOGKmzcZkeMMu52tw4-50" value="subscribe" style="rhombus;whiteSpace=wrap;html=1;" vertex="1" parent="1">
          <mxGeometry x="310" y="590" width="80" height="80" as="geometry" />
        </mxCell>
        <mxCell id="czMOGKmzcZkeMMu52tw4-51" value="" style="endArrow=none;html=1;rounded=0;exitX=0.5;exitY=0;exitDx=0;exitDy=0;" edge="1" parent="1" source="czMOGKmzcZkeMMu52tw4-50">
          <mxGeometry width="50" height="50" relative="1" as="geometry">
            <mxPoint x="210" y="510" as="sourcePoint" />
            <mxPoint x="260" y="460" as="targetPoint" />
          </mxGeometry>
        </mxCell>
        <mxCell id="czMOGKmzcZkeMMu52tw4-56" value="(0:n)" style="edgeLabel;html=1;align=center;verticalAlign=middle;resizable=0;points=[];" vertex="1" connectable="0" parent="czMOGKmzcZkeMMu52tw4-51">
          <mxGeometry x="-0.0595" y="1" relative="1" as="geometry">
            <mxPoint as="offset" />
          </mxGeometry>
        </mxCell>
        <mxCell id="czMOGKmzcZkeMMu52tw4-53" value="" style="endArrow=none;html=1;rounded=0;entryX=0;entryY=0;entryDx=0;entryDy=0;exitX=0.5;exitY=0;exitDx=0;exitDy=0;" edge="1" parent="1" source="czMOGKmzcZkeMMu52tw4-50" target="czMOGKmzcZkeMMu52tw4-1">
          <mxGeometry width="50" height="50" relative="1" as="geometry">
            <mxPoint x="340" y="600" as="sourcePoint" />
            <mxPoint x="320" y="460" as="targetPoint" />
            <Array as="points">
              <mxPoint x="360" y="540" />
            </Array>
          </mxGeometry>
        </mxCell>
        <mxCell id="czMOGKmzcZkeMMu52tw4-54" value="(0:n)" style="edgeLabel;html=1;align=center;verticalAlign=middle;resizable=0;points=[];" vertex="1" connectable="0" parent="czMOGKmzcZkeMMu52tw4-53">
          <mxGeometry x="-0.1548" y="-2" relative="1" as="geometry">
            <mxPoint as="offset" />
          </mxGeometry>
        </mxCell>
        <mxCell id="czMOGKmzcZkeMMu52tw4-57" value="title" style="ellipse;whiteSpace=wrap;html=1;" vertex="1" parent="1">
          <mxGeometry x="550" y="10" width="80" height="80" as="geometry" />
        </mxCell>
        <mxCell id="czMOGKmzcZkeMMu52tw4-59" value="id" style="ellipse;whiteSpace=wrap;html=1;" vertex="1" parent="1">
          <mxGeometry x="450" y="10" width="80" height="80" as="geometry" />
        </mxCell>
        <mxCell id="czMOGKmzcZkeMMu52tw4-60" value="content" style="ellipse;whiteSpace=wrap;html=1;" vertex="1" parent="1">
          <mxGeometry x="645" y="10" width="80" height="80" as="geometry" />
        </mxCell>
        <mxCell id="czMOGKmzcZkeMMu52tw4-61" value="postdate" style="ellipse;whiteSpace=wrap;html=1;" vertex="1" parent="1">
          <mxGeometry x="745" y="10" width="80" height="80" as="geometry" />
        </mxCell>
        <mxCell id="czMOGKmzcZkeMMu52tw4-62" value="" style="endArrow=none;html=1;rounded=0;exitX=0.402;exitY=0.998;exitDx=0;exitDy=0;exitPerimeter=0;" edge="1" parent="1" source="czMOGKmzcZkeMMu52tw4-2">
          <mxGeometry width="50" height="50" relative="1" as="geometry">
            <mxPoint x="730" y="140" as="sourcePoint" />
            <mxPoint x="780" y="90" as="targetPoint" />
          </mxGeometry>
        </mxCell>
        <mxCell id="czMOGKmzcZkeMMu52tw4-63" value="" style="endArrow=none;html=1;rounded=0;" edge="1" parent="1">
          <mxGeometry width="50" height="50" relative="1" as="geometry">
            <mxPoint x="600" y="170" as="sourcePoint" />
            <mxPoint x="670" y="90" as="targetPoint" />
          </mxGeometry>
        </mxCell>
        <mxCell id="czMOGKmzcZkeMMu52tw4-64" value="" style="endArrow=none;html=1;rounded=0;" edge="1" parent="1">
          <mxGeometry width="50" height="50" relative="1" as="geometry">
            <mxPoint x="600" y="160" as="sourcePoint" />
            <mxPoint x="590" y="90" as="targetPoint" />
          </mxGeometry>
        </mxCell>
        <mxCell id="czMOGKmzcZkeMMu52tw4-65" value="" style="endArrow=none;html=1;rounded=0;" edge="1" parent="1">
          <mxGeometry width="50" height="50" relative="1" as="geometry">
            <mxPoint x="600" y="170" as="sourcePoint" />
            <mxPoint x="500" y="90" as="targetPoint" />
          </mxGeometry>
        </mxCell>
        <mxCell id="czMOGKmzcZkeMMu52tw4-66" value="birthday" style="ellipse;whiteSpace=wrap;html=1;" vertex="1" parent="1">
          <mxGeometry x="60" y="650" width="80" height="80" as="geometry" />
        </mxCell>
        <mxCell id="czMOGKmzcZkeMMu52tw4-67" value="" style="ellipse;whiteSpace=wrap;html=1;" vertex="1" parent="1">
          <mxGeometry x="160" y="650" width="80" height="80" as="geometry" />
        </mxCell>
      </root>
    </mxGraphModel>
  </diagram>
</mxfile>
